<svg width="176" height="58" viewBox="0 0 176 58" fill="none" xmlns="http://www.w3.org/2000/svg">
<g clip-path="url(#clip0_2_2777)" filter="url(#filter0_d_2_2777)">
<path d="M167.8 0H8.2C5.8804 0 4 1.86548 4 4.16667V45.8333C4 48.1345 5.8804 50 8.2 50H167.8C170.12 50 172 48.1345 172 45.8333V4.16667C172 1.86548 170.12 0 167.8 0Z" fill="#151515"/>
<path fill-rule="evenodd" clip-rule="evenodd" d="M39.3738 14.7584C42.9354 14.7584 45.2118 18.1889 45.2118 18.1889C45.2118 18.1889 41.7398 20.0667 41.7398 24.1417C41.7398 28.9792 46.1036 30.3875 46.1036 30.3875C46.1036 30.3875 42.6596 38.5209 38.79 38.5209C36.6144 38.5209 36.4688 37.275 33.5778 37.275C31.0662 37.275 30.2206 38.5195 28.3082 38.5195C24.657 38.5195 19.9418 30.5889 19.9418 24.1375C19.9418 17.4389 24.7158 14.7556 27.709 14.7556C30.3368 14.7556 31.433 16.2973 33.547 16.2973C35.3292 16.2973 36.732 14.7556 39.3738 14.7556V14.7584ZM38.7606 7.92505C39.2828 11.2112 36.291 15.2723 32.7126 15.1403C32.1876 10.9639 36.0446 8.15005 38.7578 7.92922L38.7606 7.92505Z" fill="white"/>
<mask id="mask0_2_2777" style="mask-type:luminance" maskUnits="userSpaceOnUse" x="56" y="8" width="101" height="37">
<path d="M56.7296 8.12646H156.942V44.5098H56.7296V8.12785V8.12646Z" fill="white"/>
</mask>
<g mask="url(#mask0_2_2777)">
<path fill-rule="evenodd" clip-rule="evenodd" d="M65.9612 32.6029L64.5472 28.2196C64.3974 27.7752 64.116 26.7196 63.7044 25.0599H63.654C63.486 25.7738 63.2228 26.8279 62.8588 28.2224L61.4686 32.6071H65.9626L65.9612 32.6029ZM70.8514 39.6029H67.9954L66.433 34.6724H60.9996L59.5086 39.6029H56.7296L62.1154 22.8154H65.4404L70.8514 39.6043V39.6029Z" fill="white"/>
</g>
<mask id="mask1_2_2777" style="mask-type:luminance" maskUnits="userSpaceOnUse" x="56" y="8" width="101" height="37">
<path d="M56.7296 8.12646H156.942V44.5098H56.7296" fill="white"/>
</mask>
<g mask="url(#mask1_2_2777)">
<path fill-rule="evenodd" clip-rule="evenodd" d="M81.9436 33.5001C81.9436 32.3223 81.6804 31.3501 81.1512 30.5862C80.5716 29.7904 79.7932 29.3917 78.8174 29.3917C78.1566 29.3917 77.5574 29.614 77.0184 30.0515C76.4793 30.4936 76.1076 31.1042 75.9642 31.7834C75.8802 32.1167 75.8382 32.3862 75.8382 32.6029V34.6223C75.8382 35.5029 76.1042 36.2473 76.6446 36.8542C77.1822 37.4598 77.8808 37.764 78.7404 37.764C79.7484 37.764 80.5352 37.3723 81.098 36.5945C81.6608 35.8126 81.9422 34.7834 81.9422 33.5042M84.6722 33.407C84.6722 35.4654 84.1164 37.0917 83.002 38.2876C82.0038 39.3487 80.762 39.8806 79.2836 39.8806C77.6876 39.8806 76.5396 39.3084 75.8396 38.1626V44.5154H73.1656V31.482C73.1656 30.1862 73.132 28.8598 73.0676 27.5001H75.4238L75.5736 29.4223H75.624C76.52 27.9751 77.8738 27.2515 79.6938 27.2515C81.1162 27.2515 82.3034 27.8167 83.254 28.9459C84.2032 30.0779 84.6792 31.564 84.6792 33.407" fill="white"/>
</g>
<mask id="mask2_2_2777" style="mask-type:luminance" maskUnits="userSpaceOnUse" x="56" y="8" width="101" height="37">
<path d="M56.7296 8.12646H156.942V44.5098H56.7296" fill="white"/>
</mask>
<g mask="url(#mask2_2_2777)">
<path fill-rule="evenodd" clip-rule="evenodd" d="M95.8176 33.5001C95.8176 32.3223 95.5516 31.3501 95.0196 30.5862C94.4414 29.7904 93.6658 29.3917 92.69 29.3917C92.0278 29.3917 91.43 29.614 90.8896 30.0515C90.3505 30.4933 89.9792 31.1042 89.8368 31.7834C89.7528 32.1167 89.7108 32.3862 89.7108 32.6029V34.6223C89.7108 35.5029 89.9796 36.2473 90.5158 36.8542C91.0534 37.4584 91.7534 37.764 92.6158 37.764C93.6238 37.764 94.412 37.3723 94.972 36.5945C95.532 35.8126 95.8162 34.7834 95.8162 33.5042M98.5462 33.407C98.5462 35.4654 97.9862 37.0917 96.8732 38.2876C95.8736 39.3487 94.6332 39.8806 93.1548 39.8806C91.5546 39.8806 90.4066 39.3084 89.7108 38.1626V44.5154H87.0284V31.482C87.0284 30.1862 86.9948 28.8598 86.9304 27.5001H89.2866L89.4364 29.4223H89.4868C90.38 27.9751 91.7366 27.2515 93.558 27.2515C94.979 27.2515 96.1676 27.8167 97.1196 28.9459C98.0674 30.0779 98.5462 31.564 98.5462 33.407Z" fill="white"/>
</g>
<path fill-rule="evenodd" clip-rule="evenodd" d="M114.06 34.8946C114.06 36.3251 113.56 37.4862 112.571 38.3834C111.482 39.3598 109.963 39.8501 108.014 39.8501C106.215 39.8501 104.772 39.5001 103.683 38.8043L104.303 36.5612C105.479 37.2584 106.773 37.6071 108.177 37.6071C109.188 37.6071 109.973 37.3807 110.534 36.9237C111.099 36.4654 111.381 35.8571 111.381 35.0946C111.381 34.414 111.148 33.8418 110.686 33.3765C110.221 32.9126 109.454 32.4793 108.378 32.0821C105.447 30.9848 103.982 29.3834 103.982 27.2737C103.982 25.8959 104.5 24.7696 105.532 23.8848C106.565 23.0071 107.936 22.5654 109.64 22.5654C111.166 22.5654 112.433 22.8321 113.441 23.3626L112.769 25.5571C111.82 25.0404 110.75 24.7834 109.554 24.7834C108.607 24.7834 107.865 25.0168 107.334 25.4821C106.889 25.8959 106.662 26.4015 106.662 27.0029C106.662 27.6654 106.92 28.2154 107.432 28.6459C107.88 29.0432 108.692 29.4765 109.864 29.9404C111.306 30.5237 112.363 31.2043 113.042 31.9821C113.724 32.7626 114.064 33.7348 114.064 34.8946M122.945 29.5196H119.991V35.3946C119.991 36.8918 120.512 37.6376 121.555 37.6376C122.035 37.6376 122.434 37.5959 122.745 37.5126L122.821 39.5543C122.294 39.7529 121.6 39.8529 120.739 39.8529C119.679 39.8529 118.853 39.5279 118.257 38.8807C117.66 38.2307 117.361 37.1446 117.361 35.6168V29.5098H115.602V27.4959H117.362V25.2793L119.994 24.4821V27.4959H122.948V29.5182L122.945 29.5196ZM133.468 33.5154C133.468 32.4071 133.23 31.4557 132.751 30.6598C132.188 29.6987 131.383 29.2182 130.343 29.2182C129.269 29.2182 128.445 29.6987 127.886 30.6598C127.404 31.4557 127.165 32.4237 127.165 33.5654C127.165 34.6765 127.403 35.6293 127.886 36.4237C128.466 37.3848 129.272 37.8654 130.322 37.8654C131.344 37.8654 132.146 37.3751 132.73 36.3987C133.22 35.5862 133.468 34.6265 133.468 33.5154ZM136.247 33.4543C136.247 35.3154 135.715 36.8432 134.656 38.0376C133.546 39.2668 132.075 39.8807 130.238 39.8807C128.466 39.8807 127.056 39.2904 126.004 38.114C124.957 36.9334 124.431 35.4473 124.431 33.6557C124.431 31.7807 124.974 30.2432 126.055 29.0487C127.14 27.8543 128.6 27.2543 130.437 27.2543C132.206 27.2543 133.629 27.8459 134.704 29.0223C135.733 30.1668 136.244 31.6432 136.244 33.4529M144.96 29.8668C144.682 29.8157 144.398 29.7906 144.115 29.7918C143.171 29.7918 142.443 30.1501 141.931 30.8668C141.483 31.4973 141.262 32.2946 141.262 33.2557V39.6098H138.582V31.314C138.582 29.9209 138.554 28.6473 138.504 27.5029H140.837L140.935 29.8196H141.01C141.294 29.0251 141.738 28.3834 142.349 27.9029C142.907 27.4831 143.587 27.2554 144.287 27.2543C144.532 27.2543 144.755 27.2709 144.953 27.3029L144.956 29.8696L144.96 29.8668ZM154.388 32.2834C154.408 31.4848 154.231 30.7973 153.87 30.214C153.404 29.4668 152.69 29.0932 151.734 29.0932C150.856 29.0932 150.143 29.4571 149.6 30.1904C149.155 30.7709 148.889 31.4682 148.808 32.2807L154.388 32.2834ZM156.944 32.9807C156.944 33.4626 156.912 33.8696 156.846 34.2029H148.808C148.836 35.3973 149.228 36.3112 149.972 36.9418C150.65 37.5029 151.526 37.7848 152.602 37.7848C153.792 37.7848 154.878 37.5973 155.855 37.2154L156.275 39.0807C155.134 39.5807 153.783 39.8307 152.232 39.8307C150.362 39.8307 148.893 39.2779 147.825 38.1751C146.761 37.0709 146.225 35.5862 146.225 33.7279C146.225 31.9043 146.72 30.3848 147.714 29.1723C148.756 27.8779 150.164 27.2307 151.932 27.2307C153.671 27.2307 154.987 27.8779 155.88 29.1723C156.587 30.1973 156.944 31.4682 156.944 32.9779V32.9807ZM62.2666 13.3668L61.5708 11.214C61.498 10.9918 61.3636 10.4779 61.1564 9.65844H61.1312C61.0472 10.0112 60.924 10.5265 60.7392 11.214L60.0574 13.3668H62.2666ZM64.6676 16.8043H63.2676L62.4976 14.3807H59.8264L59.0956 16.8057H57.7264L60.3724 8.55566H62.0076L64.6676 16.8043ZM71.2896 10.8571L69.0426 16.8043H67.7616L65.5916 10.8571H67.0056L68.0192 14.0029C68.19 14.5307 68.3356 15.0307 68.4448 15.5071H68.4826C68.5806 15.0793 68.7262 14.5765 68.9082 14.0029L69.9064 10.8557H71.2854L71.2896 10.8571ZM75.8816 13.8432C74.42 13.8432 73.6878 14.1987 73.6878 15.0418C73.6878 15.6668 74.0658 15.9723 74.5908 15.9723C75.2628 15.9723 75.883 15.4584 75.883 14.7612V13.8446L75.8816 13.8432ZM76.0678 16.8057L75.9698 16.1209H75.932C75.5302 16.6723 74.945 16.9404 74.2002 16.9404C73.1362 16.9404 72.3802 16.1946 72.3802 15.1904C72.3802 13.7209 73.6486 12.9626 75.8438 12.9626V12.8515C75.8438 12.0682 75.4294 11.6765 74.6118 11.6765C74.0628 11.6667 73.5234 11.8206 73.0634 12.1182L72.7946 11.2487C73.3448 10.9057 74.0266 10.7348 74.833 10.7348C76.3814 10.7348 77.1626 11.5543 77.1626 13.1959V15.3848C77.1626 15.9876 77.1878 16.4543 77.2466 16.8071H76.0636L76.0678 16.8057Z" fill="white"/>
<mask id="mask3_2_2777" style="mask-type:luminance" maskUnits="userSpaceOnUse" x="56" y="8" width="101" height="37">
<path d="M56.7296 8.12646H156.942V44.5098H56.7296V8.12785V8.12646Z" fill="white"/>
</mask>
<g mask="url(#mask3_2_2777)">
<path fill-rule="evenodd" clip-rule="evenodd" d="M80.7844 16.8071H79.4684V10.8571H80.7844V16.8071ZM80.1012 9.87656C79.9968 9.87679 79.8934 9.8562 79.7971 9.81602C79.7008 9.77585 79.6137 9.7169 79.5408 9.64267C79.468 9.56845 79.4109 9.48046 79.373 9.38392C79.335 9.28739 79.317 9.18429 79.32 9.08072C79.32 8.63072 79.6742 8.29878 80.1264 8.29878C80.5772 8.29878 80.9426 8.63211 80.93 9.0835C80.93 9.56128 80.5898 9.87934 80.1012 9.87934V9.87656ZM84.4412 16.8071H83.1252V8.12656H84.4412V16.8071ZM89.8592 13.8432C88.3934 13.8432 87.6612 14.1988 87.6612 15.0418C87.6612 15.6668 88.0392 15.9724 88.5642 15.9724C89.232 15.9724 89.855 15.4585 89.855 14.7613V13.8446L89.8592 13.8432ZM90.0412 16.8057L89.9432 16.121H89.9068C89.5036 16.6724 88.9184 16.9404 88.1736 16.9404C87.1138 16.9404 86.3564 16.1946 86.3564 15.1904C86.3564 13.721 87.6248 12.9627 89.8214 12.9627V12.8516C89.8214 12.0682 89.4056 11.6766 88.5894 11.6766C88.0014 11.6766 87.4904 11.8238 87.041 12.1182L86.775 11.2474C87.3238 10.9071 88.007 10.7335 88.812 10.7335C90.3604 10.7335 91.143 11.5529 91.143 13.1974V15.3849C91.143 15.9863 91.1668 16.4516 91.227 16.8057H90.0412ZM96.2096 11.7738C95.4508 11.7738 94.7564 12.4349 94.7564 13.3529V14.3946C94.7564 15.2141 95.3794 15.8877 96.1844 15.8877C97.1728 15.8877 97.7594 15.0793 97.7594 13.7946C97.7594 12.5946 97.1476 11.7738 96.2082 11.7738M96.4742 16.9404C95.6342 16.9404 95.0112 16.5849 94.608 15.8877H94.5828L94.5058 16.8043H93.3858C93.4194 16.3293 93.432 15.7904 93.432 15.2029V8.12378H94.7508V11.7238H94.7746C95.1638 11.0627 95.7966 10.7321 96.6646 10.7321C98.0926 10.7321 99.0922 11.9585 99.0922 13.746C99.0922 15.5932 97.982 16.9404 96.47 16.9404M102.364 16.8071H101.048V8.12656H102.364V16.8071ZM108.325 13.2071C108.325 12.2904 107.863 11.6404 107.02 11.6404C106.262 11.6404 105.668 12.3016 105.578 13.2071H108.325ZM109.533 14.1488H105.578C105.606 15.2766 106.348 15.9127 107.445 15.9127C108.033 15.9127 108.567 15.8127 109.041 15.6307L109.246 16.5474C108.686 16.7932 108.028 16.9154 107.258 16.9154C105.406 16.9154 104.309 15.7404 104.309 13.9154C104.309 12.0932 105.431 10.721 107.113 10.721C108.621 10.721 109.577 11.8488 109.577 13.5502C109.58 13.7793 109.567 13.9877 109.531 14.1474L109.533 14.1488ZM117.569 11.7002C116.617 11.7002 116.006 12.5932 116.006 13.8418C116.006 15.0641 116.631 15.9585 117.56 15.9585C118.484 15.9585 119.107 15.0029 119.107 13.8141C119.107 12.6057 118.496 11.6988 117.571 11.6988M117.518 16.9404C115.786 16.9404 114.662 15.6432 114.662 13.8807C114.662 12.0446 115.81 10.7335 117.618 10.7335C119.322 10.7335 120.472 11.9696 120.472 13.7863C120.472 15.6474 119.289 16.9432 117.518 16.9432M127.556 16.8085H126.24V13.3918C126.24 12.3404 125.836 11.8127 125.043 11.8127C124.263 11.8127 123.724 12.4863 123.724 13.271V16.8085H122.408V12.5585C122.408 12.0335 122.394 11.4696 122.359 10.8585H123.518L123.58 11.7752H123.616C123.966 11.1363 124.69 10.7335 125.492 10.7335C126.738 10.7335 127.554 11.6877 127.554 13.2418V16.8057L127.556 16.8085ZM136.173 11.8502H134.724V14.7391C134.724 15.4752 134.978 15.8418 135.489 15.8418C135.722 15.8418 135.918 15.8168 136.077 15.7807L136.112 16.7849C135.856 16.8821 135.513 16.9321 135.09 16.9321C134.05 16.9321 133.431 16.3571 133.431 14.8488V11.8488H132.568V10.8571H133.431V9.76684L134.724 9.37378V10.8571H136.173V11.8474V11.8502ZM143.149 16.8085H141.83V13.4196C141.83 12.3529 141.427 11.8141 140.634 11.8141C139.951 11.8141 139.318 12.2793 139.318 13.2224V16.8113H138V8.12656H139.318V11.7002H139.346C139.758 11.0516 140.354 10.7335 141.124 10.7335C142.382 10.7335 143.149 11.7154 143.149 13.2696V16.8085ZM148.672 13.2113C148.672 12.2946 148.21 11.6418 147.367 11.6418C146.611 11.6418 146.016 12.3043 145.929 13.2113H148.673H148.672ZM149.88 14.1516H145.926C145.952 15.2793 146.694 15.9154 147.791 15.9154C148.379 15.9154 148.914 15.8154 149.387 15.6335L149.594 16.5502C149.034 16.796 148.376 16.9182 147.606 16.9182C145.751 16.9182 144.655 15.7432 144.655 13.9182C144.655 12.096 145.775 10.7238 147.459 10.7238C148.971 10.7238 149.923 11.8516 149.923 13.5529C149.929 13.7821 149.916 13.9904 149.881 14.1502L149.88 14.1516Z" fill="white"/>
</g>
</g>
<defs>
<filter id="filter0_d_2_2777" x="0" y="0" width="176" height="58" filterUnits="userSpaceOnUse" color-interpolation-filters="sRGB">
<feFlood flood-opacity="0" result="BackgroundImageFix"/>
<feColorMatrix in="SourceAlpha" type="matrix" values="0 0 0 0 0 0 0 0 0 0 0 0 0 0 0 0 0 0 127 0" result="hardAlpha"/>
<feOffset dy="4"/>
<feGaussianBlur stdDeviation="2"/>
<feComposite in2="hardAlpha" operator="out"/>
<feColorMatrix type="matrix" values="0 0 0 0 0 0 0 0 0 0 0 0 0 0 0 0 0 0 0.25 0"/>
<feBlend mode="normal" in2="BackgroundImageFix" result="effect1_dropShadow_2_2777"/>
<feBlend mode="normal" in="SourceGraphic" in2="effect1_dropShadow_2_2777" result="shape"/>
</filter>
<clipPath id="clip0_2_2777">
<rect width="168" height="50" fill="white" transform="translate(4)"/>
</clipPath>
</defs>
</svg>
